#!OML:ASF E:\Style4\Style4.ASF
:FULLY-SPECIFIED
:DEGREES
1478
root 1.68144 17.0975 -1.24024 5.86097 -25.8089 1.68169
lowerback 17.5315 1.01427 -1.27589
upperback 8.43292 0.998394 0.417504
thorax -0.844235 0.39548 0.983517
lowerneck 4.20898 -1.83912 -3.69013
upperneck -7.32474 -2.75651 -0.0585501
head -3.02788 -1.27327 0.72856
rclavicle -2.3059e-014 8.74653e-015
rhumerus 22.0206 6.15508 -75.0488
rradius 114.071
rwrist 24.6539
rhand 15.4059 -3.27204
rfingers 7.12502
rthumb 40.2336 -28.4272
lclavicle -2.3059e-014 8.74653e-015
lhumerus 33.7761 -14.746 66.896
lradius 114.057
lwrist -12.7962
lhand 12.2786 37.4755
lfingers 7.12502
lthumb 37.2842 63.466
rfemur -36.5134 14.4804 9.65473
rtibia 46.1479
rfoot -17.9377 -3.81669
rtoes -20.0052
lfemur -30.2808 12.7779 -27.8256
ltibia 49.3558
lfoot -29.5647 16.6715
ltoes -6.83956
1479
root 1.7046 17.0873 -1.23085 5.70553 -26.3876 1.74786
lowerback 17.0732 0.874035 -0.640692
upperback 8.91869 0.89489 -0.00207286
thorax -0.0709676 0.36259 0.210627
lowerneck 4.32856 -1.81524 -3.47915
upperneck -7.81587 -2.70478 0.174767
head -3.21948 -1.25552 0.773834
rclavicle -2.68359e-014 -6.36111e-015
rhumerus 22.3356 5.36568 -75.5142
rradius 113.966
rwrist 25.0591
rhand 15.3017 -3.04331
rfingers 7.12502
rthumb 40.1356 -28.2283
lclavicle -2.68359e-014 -6.36111e-015
lhumerus 34.8974 -14.9881 66.2208
lradius 113.7
lwrist -12.9779
lhand 12.3277 37.5551
lfingers 7.12502
lthumb 37.3306 63.5334
rfemur -36.6226 14.777 9.50365
rtibia 46.2659
rfoot -17.9735 -3.60317
rtoes -19.724
lfemur -30.2048 13.0298 -27.9651
ltibia 49.51
lfoot -29.802 16.7245
ltoes -6.19617
1480
root 1.72577 17.0748 -1.22328 5.5933 -26.9902 1.74781
lowerback 16.5883 0.787919 -0.334639
upperback 9.38811 0.815441 -0.17482
thorax 0.689696 0.331599 -0.121891
lowerneck 4.57976 -1.77575 -3.41391
upperneck -8.37461 -2.66087 0.247144
head -3.46213 -1.23129 0.795552
rclavicle 5.1684e-015 7.95139e-015
rhumerus 22.6776 4.87789 -75.6432
rradius 113.955
rwrist 25.1564
rhand 15.2413 -3.31741
rfingers 7.12502
rthumb 40.0787 -28.5197
lclavicle 5.1684e-015 7.95139e-015
lhumerus 35.8105 -15.023 65.8812
lradius 113.339
lwrist -13.0634
lhand 12.243 37.5218
lfingers 7.12502
lthumb 37.2506 63.521
rfemur -36.757 15.1228 9.40472
rtibia 46.3852
rfoot -18.0108 -3.38747
rtoes -19.6235
lfemur -30.1632 13.3218 -28.0417
ltibia 49.6785
lfoot -30.0925 16.8472
ltoes -6.00698
1481
root 1.74577 17.0633 -1.22017 5.52643 -27.5534 1.73623
lowerback 16.7492 0.7351 -0.344772
upperback 9.42138 0.739123 -0.152717
thorax 0.641544 0.290234 -0.0826113
lowerneck 4.93385 -1.6939 -3.40747
upperneck -8.61923 -2.57858 0.133282
head -3.61973 -1.18187 0.762181
rclavicle -1.91827e-014 -1.47101e-014
rhumerus 22.4877 4.66775 -75.5954
rradius 114.079
rwrist 25.0916
rhand 15.3783 -3.43736
rfingers 7.12502
rthumb 40.2076 -28.6004
lclavicle -1.91827e-014 -1.47101e-014
lhumerus 36.0085 -15.1814 65.8976
lradius 113.107
lwrist -13.1744
lhand 11.9699 37.4315
lfingers 7.12502
lthumb 36.9923 63.4979
rfemur -36.9556 15.4676 9.3134
rtibia 46.5135
rfoot -17.9582 -3.22607
rtoes -19.8118
lfemur -30.2319 13.6298 -28.115
ltibia 49.8727
lfoot -30.2406 17.0804
ltoes -6.36532
1482
root 1.76582 17.0533 -1.21473 5.37268 -28.0876 1.87701
lowerback 16.9538 0.644524 -0.356046
upperback 9.47656 0.611061 -0.238612
thorax 0.595834 0.225679 -0.147703
lowerneck 5.09099 -1.58557 -3.37556
upperneck -8.73129 -2.44911 0.0161306
head -3.69422 -1.11175 0.715811
rclavicle -3.22031e-014 -5.96354e-015
rhumerus 22.327 4.46324 -75.6785
rradius 114.22
rwrist 25.158
rhand 15.5459 -3.2766
rfingers 7.12502
rthumb 40.3652 -28.3914
lclavicle -3.22031e-014 -5.96354e-015
lhumerus 36.229 -15.3042 65.7735
lradius 113.003
lwrist -13.3456
lhand 11.8955 37.3574
lfingers 7.12502
lthumb 36.9219 63.442
rfemur -37.1292 15.7466 9.08707
rtibia 46.6722
rfoot -17.8722 -3.04462
rtoes -20.3687
lfemur -30.2824 13.9141 -28.3495
ltibia 50.0813
lfoot -30.398 17.3636
ltoes -6.5491
1483
root 1.78354 17.041 -1.20894 5.21498 -28.6366 2.03573
lowerback 16.965 0.557244 -0.576064
upperback 9.66353 0.459255 -0.194682
thorax 0.788538 0.136056 0.0470386
lowerneck 5.16638 -1.4252 -3.55908
upperneck -8.92136 -2.27091 -0.132867
head -3.77984 -1.00811 0.693724
rclavicle -1.66979e-014 3.69739e-014
rhumerus 22.4772 4.51009 -75.6133
rradius 114.271
rwrist 25.1858
rhand 15.6564 -3.21649
rfingers 7.12502
rthumb 40.4692 -28.2993
lclavicle -1.66979e-014 3.69739e-014
lhumerus 36.5054 -15.0531 65.8503
lradius 112.9
lwrist -13.433
lhand 12.1442 37.477
lfingers 7.12502
lthumb 37.1571 63.5007
rfemur -37.3309 16.0402 8.84092
rtibia 46.863
rfoot -17.8876 -2.8029
rtoes -20.461
lfemur -30.3267 14.2201 -28.605
ltibia 50.3161
lfoot -30.6107 17.6447
ltoes -6.74244
1484
root 1.7989 17.0246 -1.20508 5.0791 -29.1433 2.12953
lowerback 17.3202 0.491216 -0.861872
upperback 9.62447 0.326579 -0.0619823
thorax 0.561892 0.0536723 0.367199
lowerneck 5.33586 -1.27843 -3.8431
upperneck -8.95922 -2.11557 -0.220602
head -3.8288 -0.916353 0.710049
rclavicle 1.72943e-014 -1.8487e-014
rhumerus 22.3337 4.69674 -75.4856
rradius 114.316
rwrist 25.1819
rhand 15.8103 -3.21977
rfingers 7.12502
rthumb 40.6138 -28.2577
lclavicle 1.72943e-014 -1.8487e-014
lhumerus 36.4417 -14.8575 66.1666
lradius 112.78
lwrist -13.4729
lhand 12.381 37.5727
lfingers 7.12502
lthumb 37.381 63.5377
rfemur -37.5323 16.3402 8.67126
rtibia 47.0767
rfoot -17.9411 -2.65515
rtoes -20.3924
lfemur -30.3815 14.5515 -28.7755
ltibia 50.5807
lfoot -30.7906 17.8458
ltoes -7.10333
1485
root 1.813 17.005 -1.20341 5.01117 -29.6199 2.11207
lowerback 17.6163 0.362321 -1.07994
upperback 9.66452 0.118816 0.0194843
thorax 0.455081 -0.0631123 0.60972
lowerneck 5.2755 -1.09631 -3.91152
upperneck -8.94593 -1.88615 -0.349193
head -3.81786 -0.795065 0.667565
rclavicle 1.799e-014 -3.89618e-014
rhumerus 22.3891 5.03178 -75.5522
rradius 114.372
rwrist 25.1828
rhand 15.9072 -3.3157
rfingers 7.12502
rthumb 40.7049 -28.3252
lclavicle 1.799e-014 -3.89618e-014
lhumerus 36.4276 -14.4893 66.261
lradius 112.696
lwrist -13.5636
lhand 12.3984 37.3941
lfingers 7.12502
lthumb 37.3974 63.3548
rfemur -37.7449 16.6212 8.62455
rtibia 47.2907
rfoot -17.9479 -2.52278
rtoes -20.4528
lfemur -30.4817 14.9204 -28.8257
ltibia 50.8815
lfoot -31.1913 17.7446
ltoes -6.5418
1486
root 1.82904 16.9896 -1.19974 4.96445 -30.0987 2.06736
lowerback 18.1156 0.267431 -1.52412
upperback 9.62578 -0.0798902 0.240845
thorax 0.163695 -0.185279 1.12858
lowerneck 4.99099 -0.893819 -3.84944
upperneck -8.77198 -1.63153 -0.773093
head -3.70924 -0.656711 0.499795
rclavicle -1.81888e-014 1.19271e-014
rhumerus 22.4728 5.55882 -75.4673
rradius 114.383
rwrist 25.0815
rhand 15.9111 -3.32495
rfingers 7.12502
rthumb 40.7086 -28.3333
lclavicle -1.81888e-014 1.19271e-014
lhumerus 36.1425 -14.0173 66.5896
lradius 112.691
lwrist -13.7663
lhand 12.3003 37.2618
lfingers 7.12502
lthumb 37.3047 63.2469
rfemur -37.9454 16.9025 8.58938
rtibia 47.4856
rfoot -18.0099 -2.33089
rtoes -20.6309
lfemur -30.6223 15.2655 -28.8575
ltibia 51.1941
lfoot -31.4927 17.772
ltoes -6.13076
1487
root 1.84493 16.9748 -1.19536 4.87511 -30.5903 2.0591
lowerback 18.3939 0.313943 -1.39677
upperback 9.69483 -0.0129385 0.155507
thorax 0.0928646 -0.14779 0.955544
lowerneck 5.006 -0.931867 -3.49095
upperneck -8.81391 -1.66938 -0.940019
head -3.72936 -0.679659 0.383823
rclavicle 3.63776e-014 -5.1684e-015
rhumerus 22.3332 5.28376 -75.5725
rradius 114.428
rwrist 25.0984
rhand 15.8648 -3.26662
rfingers 7.12502
rthumb 40.665 -28.2885
lclavicle 3.63776e-014 -5.1684e-015
lhumerus 36.3698 -14.2284 66.6368
lradius 112.654
lwrist -13.7868
lhand 12.3222 37.2574
lfingers 7.12502
lthumb 37.3254 63.237
rfemur -38.1267 17.1883 8.53223
rtibia 47.6679
rfoot -18.0215 -2.19512
rtoes -20.9278
lfemur -30.7483 15.6254 -28.9244
ltibia 51.4973
lfoot -31.5421 18.0678
ltoes -6.68968
1488
root 1.85866 16.9596 -1.19216 4.72443 -31.0586 2.1353
lowerback 18.5103 0.380589 -1.13796
upperback 9.83683 0.100879 -0.0234919
thorax 0.183164 -0.081151 0.600169
lowerneck 5.16276 -1.03796 -3.23188
upperneck -8.91425 -1.7985 -0.938119
head -3.79523 -0.750241 0.34713
rclavicle -4.24405e-014 3.29983e-014
rhumerus 22.1575 4.86114 -75.7047
rradius 114.514
rwrist 25.1505
rhand 15.7696 -3.18789
rfingers 7.12502
rthumb 40.5756 -28.2377
lclavicle -4.24405e-014 3.29983e-014
lhumerus 36.8024 -14.5435 66.6048
lradius 112.696
lwrist -13.4026
lhand 12.7217 37.4407
lfingers 7.12502
lthumb 37.703 63.3201
rfemur -38.2834 17.4543 8.40096
rtibia 47.8473
rfoot -18.0268 -2.02423
rtoes -21.0029
lfemur -30.8146 15.9638 -29.0543
ltibia 51.7676
lfoot -31.6318 18.2701
ltoes -7.03404
1489
root 1.87215 16.9469 -1.18933 4.59984 -31.4768 2.26258
lowerback 18.5714 0.390439 -1.06512
upperback 9.97429 0.115715 -0.103666
thorax 0.300035 -0.0729511 0.471618
lowerneck 5.18814 -1.06821 -3.22692
upperneck -8.87521 -1.84282 -0.976794
head -3.78626 -0.771283 0.335616
rclavicle -7.68303e-014 6.61953e-014
rhumerus 22.1302 4.75345 -75.7555
rradius 114.586
rwrist 25.1442
rhand 15.7621 -3.16735
rfingers 7.12502
rthumb 40.5685 -28.2193
lclavicle -7.68303e-014 6.61953e-014
lhumerus 37.0041 -14.5746 66.7522
lradius 112.868
lwrist -12.921
lhand 13.0471 37.4593
lfingers 7.12502
lthumb 38.0104 63.2557
rfemur -38.4873 17.6383 8.21684
rtibia 48.0315
rfoot -18.0765 -1.76161
rtoes -21.1137
lfemur -30.9079 16.2678 -29.2496
ltibia 52.0076
lfoot -31.8096 18.3965
ltoes -6.9739
1490
root 1.88602 16.9321 -1.18541 4.5701 -31.8692 2.30868
lowerback 18.5555 0.401844 -0.883212
upperback 10.0806 0.152856 -0.127038
thorax 0.422466 -0.0499425 0.337478
lowerneck 5.34714 -1.11469 -3.40198
upperneck -8.91262 -1.92577 -0.941695
head -3.82822 -0.806774 0.38387
rclavicle -2.25621e-014 0
rhumerus 22.1055 4.62566 -75.6725
rradius 114.65
rwrist 25.1292
rhand 15.8692 -3.09112
rfingers 7.12502
rthumb 40.6692 -28.1117
lclavicle -2.25621e-014 0
lhumerus 37.0468 -14.6576 67.0315
lradius 112.987
lwrist -12.7145
lhand 13.0822 37.3494
lfingers 7.12502
lthumb 38.0435 63.1368
rfemur -38.7382 17.7891 8.10174
rtibia 48.222
rfoot -18.14 -1.55588
rtoes -21.3624
lfemur -31.05 16.5803 -29.3864
ltibia 52.229
lfoot -31.913 18.5312
ltoes -7.14102
1491
root 1.89813 16.9198 -1.18314 4.52521 -32.2646 2.33422
lowerback 18.5544 0.460644 -0.620428
upperback 10.1738 0.263284 -0.175842
thorax 0.523606 0.0142956 0.118082
lowerneck 5.67518 -1.22406 -3.51728
upperneck -9.06575 -2.09358 -0.853043
head -3.94329 -0.885936 0.446598
rclavicle 5.47652e-014 -2.90226e-014
rhumerus 21.9532 4.38668 -75.5795
rradius 114.757
rwrist 25.0679
rhand 15.879 -3.01693
rfingers 7.12502
rthumb 40.6784 -28.0347
lclavicle 5.47652e-014 -2.90226e-014
lhumerus 37.1104 -14.9256 67.2863
lradius 113.014
lwrist -12.6228
lhand 12.9926 37.2928
lfingers 7.12502
lthumb 37.9589 63.1032
rfemur -38.9615 17.9742 8.02149
rtibia 48.4069
rfoot -18.1529 -1.37761
rtoes -21.3168
lfemur -31.1629 16.9179 -29.4778
ltibia 52.4337
lfoot -31.8927 18.6212
ltoes -7.55537
